<?xml version="1.0" encoding="UTF-8" standalone="no"?>
<svg
   width="210mm"
   height="210mm"
   viewBox="0 0 210 210"
   version="1.1"
   id="svg8"
   sodipodi:docname="Torch_angle_white.svg"
   inkscape:version="1.2.2 (732a01da63, 2022-12-09)"
   xmlns:inkscape="http://www.inkscape.org/namespaces/inkscape"
   xmlns:sodipodi="http://sodipodi.sourceforge.net/DTD/sodipodi-0.dtd"
   xmlns:xlink="http://www.w3.org/1999/xlink"
   xmlns="http://www.w3.org/2000/svg"
   xmlns:svg="http://www.w3.org/2000/svg"
   xmlns:rdf="http://www.w3.org/1999/02/22-rdf-syntax-ns#"
   xmlns:cc="http://creativecommons.org/ns#"
   xmlns:dc="http://purl.org/dc/elements/1.1/">
  <defs
     id="defs2">
    <pattern
       inkscape:collect="always"
       xlink:href="#Strips1_1white"
       id="pattern5194"
       patternTransform="matrix(-0.44159228,0,0,9.7165179,113.32228,78.042702)" />
    <inkscape:path-effect
       effect="mirror_symmetry"
       start_point="122.6099,90.537553"
       end_point="122.6099,114.29113"
       center_point="122.6099,102.41434"
       id="path-effect5150"
       is_visible="true"
       lpeversion="1"
       mode="free"
       discard_orig_path="false"
       fuse_paths="false"
       oposite_fuse="false"
       split_items="false"
       lpesatellites=""
       split_open="false"
       link_styles="false" />
    <linearGradient
       inkscape:collect="always"
       id="linearGradient5026-5">
      <stop
         style="stop-color:#393939;stop-opacity:1;"
         offset="0"
         id="stop5022" />
      <stop
         style="stop-color:#393939;stop-opacity:0;"
         offset="1"
         id="stop5024" />
    </linearGradient>
    <linearGradient
       inkscape:collect="always"
       id="linearGradient4998">
      <stop
         style="stop-color:#dea0ff;stop-opacity:0.39893618;"
         offset="0"
         id="stop4994" />
      <stop
         style="stop-color:#dea0ff;stop-opacity:0;"
         offset="1"
         id="stop4996" />
    </linearGradient>
    <inkscape:path-effect
       effect="mirror_symmetry"
       start_point="35.52976,86.178571"
       end_point="35.52976,125.48809"
       center_point="35.52976,105.83333"
       id="path-effect4976"
       is_visible="true"
       lpeversion="1"
       mode="free"
       discard_orig_path="false"
       fuse_paths="false"
       oposite_fuse="false"
       split_items="false"
       lpesatellites=""
       split_open="false"
       link_styles="false" />
    <pattern
       inkscape:collect="always"
       xlink:href="#Strips1_1white"
       id="pattern3037"
       patternTransform="matrix(0.23962886,0,0,5.8522807,80.654242,96.314314)" />
    <pattern
       inkscape:collect="always"
       patternUnits="userSpaceOnUse"
       width="2"
       height="1"
       patternTransform="translate(0,0) scale(10,10)"
       id="Strips1_1white"
       inkscape:stockid="Stripes 1:1 white"
       inkscape:isstock="true">
      <rect
         style="fill:white;stroke:none"
         x="0"
         y="-0.5"
         width="1"
         height="2"
         id="rect1822" />
    </pattern>
    <pattern
       inkscape:collect="always"
       xlink:href="#Strips1_1-2"
       id="pattern2932-5"
       patternTransform="matrix(0.34122161,0,0,18.382156,74.835468,100.49334)" />
    <pattern
       inkscape:collect="always"
       patternUnits="userSpaceOnUse"
       width="2"
       height="1"
       patternTransform="translate(0,0) scale(10,10)"
       id="Strips1_1-2"
       inkscape:stockid="Stripes 1:1"
       inkscape:isstock="true">
      <rect
         style="fill:black;stroke:none"
         x="0"
         y="-0.5"
         width="1"
         height="2"
         id="rect1819-3" />
    </pattern>
    <linearGradient
       inkscape:collect="always"
       xlink:href="#linearGradient4998"
       id="linearGradient5000"
       x1="29.400793"
       y1="75.915192"
       x2="29.505013"
       y2="38.55402"
       gradientUnits="userSpaceOnUse" />
    <linearGradient
       inkscape:collect="always"
       xlink:href="#linearGradient5026-5"
       id="linearGradient5030"
       x1="196.06953"
       y1="73.919518"
       x2="198.97888"
       y2="75.008652"
       gradientUnits="userSpaceOnUse" />
    <filter
       style="color-interpolation-filters:sRGB;"
       inkscape:label="Invert"
       id="filter4926"
       x="0"
       y="0"
       width="1"
       height="1">
      <feColorMatrix
         type="hueRotate"
         values="180"
         result="color1"
         id="feColorMatrix4922" />
      <feColorMatrix
         values="-1 0 0 0 1 0 -1 0 0 1 0 0 -1 0 1 -0.21 -0.72 -0.07 1 0 "
         result="color2"
         id="feColorMatrix4924" />
    </filter>
    <filter
       style="color-interpolation-filters:sRGB;"
       inkscape:label="Invert"
       id="filter5687"
       x="0"
       y="0"
       width="1"
       height="1">
      <feColorMatrix
         type="hueRotate"
         values="180"
         result="color1"
         id="feColorMatrix5683" />
      <feColorMatrix
         values="-1 0 0 0 1 0 -1 0 0 1 0 0 -1 0 1 -0.21 -0.72 -0.07 1 0 "
         result="color2"
         id="feColorMatrix5685" />
    </filter>
    <filter
       style="color-interpolation-filters:sRGB;"
       inkscape:label="Invert"
       id="filter6419"
       x="-0.0091311394"
       y="-0.0029288411"
       width="1.0182627"
       height="1.0119448">
      <feColorMatrix
         type="hueRotate"
         values="180"
         result="color1"
         id="feColorMatrix6415" />
      <feColorMatrix
         values="-1 0 0 0 1 0 -1 0 0 1 0 0 -1 0 1 -0.21 -0.72 -0.07 1 0 "
         result="color2"
         id="feColorMatrix6417" />
    </filter>
  </defs>
  <sodipodi:namedview
     id="base"
     pagecolor="#000000"
     bordercolor="#666666"
     borderopacity="1.0"
     inkscape:pageopacity="0"
     inkscape:pageshadow="2"
     inkscape:zoom="0.98994949"
     inkscape:cx="385.87827"
     inkscape:cy="340.42141"
     inkscape:document-units="mm"
     inkscape:current-layer="layer4"
     inkscape:document-rotation="0"
     showgrid="false"
     inkscape:window-width="1920"
     inkscape:window-height="1017"
     inkscape:window-x="-8"
     inkscape:window-y="456"
     inkscape:window-maximized="1"
     inkscape:snap-global="false"
     inkscape:showpageshadow="2"
     inkscape:pagecheckerboard="0"
     inkscape:deskcolor="#d1d1d1" />
  <metadata
     id="metadata5">
    <rdf:RDF>
      <cc:Work
         rdf:about="">
        <dc:format>image/svg+xml</dc:format>
        <dc:type
           rdf:resource="http://purl.org/dc/dcmitype/StillImage" />
      </cc:Work>
    </rdf:RDF>
  </metadata>
  <g
     inkscape:groupmode="layer"
     id="layer5"
     inkscape:label="Layer 5">
    <g
       id="g4992"
       transform="rotate(-47.432385,153.52921,-47.406694)"
       style="display:inline">
      <circle
         style="font-variation-settings:normal;display:inline;opacity:1;vector-effect:none;fill:url(#linearGradient5030);fill-opacity:1;stroke:none;stroke-width:0.213751;stroke-linecap:butt;stroke-linejoin:miter;stroke-miterlimit:4;stroke-dasharray:none;stroke-dashoffset:0;stroke-opacity:1;stop-color:#000000;stop-opacity:1;filter:url(#filter5687)"
         id="path5008"
         cx="194.87828"
         cy="73.732986"
         r="2.3051996"
         transform="rotate(58.941329,95.428889,-37.386193)" />
      <g
         id="g5006"
         transform="rotate(-15.989958,12.582122,29.332817)">
        <path
           sodipodi:type="star"
           style="font-variation-settings:normal;opacity:1;vector-effect:none;fill:url(#linearGradient5000);fill-opacity:1;stroke:none;stroke-width:0.285;stroke-linecap:butt;stroke-linejoin:miter;stroke-miterlimit:4;stroke-dasharray:none;stroke-dashoffset:0;stroke-opacity:1;stop-color:#000000;stop-opacity:1"
           id="path4986"
           sodipodi:sides="3"
           sodipodi:cx="29.266012"
           sodipodi:cy="53.453907"
           sodipodi:r1="33.008869"
           sodipodi:r2="16.504435"
           sodipodi:arg1="1.5707963"
           sodipodi:arg2="2.6179939"
           inkscape:flatsided="true"
           inkscape:rounded="0"
           inkscape:randomized="0"
           d="M 29.266013,86.462776 0.6794925,36.949473 l 57.1730385,-10e-7 z"
           inkscape:transform-center-y="11.081872"
           transform="matrix(0.68255113,0,0,1.3428959,9.2904622,-23.848175)" />
        <g
           id="g4982"
           transform="translate(0.4677217,-6.0135644)">
          <ellipse
             style="font-variation-settings:normal;opacity:1;vector-effect:none;fill:#8f00e0;fill-opacity:1;stroke:none;stroke-width:0.984933;stroke-linecap:butt;stroke-linejoin:miter;stroke-miterlimit:4;stroke-dasharray:none;stroke-dashoffset:0;stroke-opacity:0;stop-color:#000000;stop-opacity:1"
             id="path4978"
             cx="28.820683"
             cy="89.400818"
             rx="3.4962797"
             ry="2.4568453" />
          <path
             style="fill:#ffffff;stroke:#ffffff;stroke-width:0.264583px;stroke-linecap:butt;stroke-linejoin:miter;stroke-opacity:1;fill-opacity:1"
             d="m 30.574323,125.53707 -0.836298,-5.88992 -0.332697,-0.60636 c -0.716571,-4.75723 -0.524324,-10.16362 0,-15.8072 l 0.351037,-0.4034 V 98.350972 L 28.47038,96.023185 c -0.08875,-3.281581 -0.459954,-6.563163 0.46019,-9.844744 h 6.599185 V 125.488 Z m 9.910874,0 0.836298,-5.88992 0.332697,-0.60636 c 0.716571,-4.75723 0.524324,-10.16362 0,-15.8072 l -0.351037,-0.4034 v -4.479218 l 1.285985,-2.327787 c 0.08875,-3.281581 0.459954,-6.563163 -0.46019,-9.844744 H 35.529765 V 125.488 Z"
             id="path4974"
             inkscape:path-effect="#path-effect4976"
             inkscape:original-d="m 30.574323,125.53707 -0.836298,-5.88992 -0.332697,-0.60636 c -0.716571,-4.75723 -0.524324,-10.16362 0,-15.8072 l 0.351037,-0.4034 V 98.350972 L 28.47038,96.023185 c -0.08875,-3.281581 -0.459954,-6.563163 0.46019,-9.844744 h 6.599185 V 125.488 Z"
             sodipodi:nodetypes="ccccccccccc"
             transform="matrix(0.57314484,0,0,0.81954481,8.4569842,17.304447)"
             class="UnoptimicedTransforms" />
        </g>
      </g>
    </g>
  </g>
  <g
     inkscape:groupmode="layer"
     id="layer6"
     inkscape:label="Layer 6"
     style="display:inline"
     transform="matrix(0.79423839,0,0,0.79423839,16.210777,1.5203631)">
    <g
       id="g14795"
       transform="matrix(2.5589567,0,0,2.5589567,-57.246953,38.862954)"
       style="filter:url(#filter4926)">
      <g
         id="g14859"
         transform="translate(1.9396691,-0.29588173)">
        <path
           id="path16377"
           style="fill:#000000;fill-opacity:1;stroke:none;stroke-width:0.21174px;stroke-linecap:butt;stroke-linejoin:miter;stroke-opacity:1"
           d="m 35.253182,7.8322638 c 0,0 0.01122,2.0716072 -0.0923,3.1579142 -0.03608,0.378454 -0.133755,0.82633 -0.257312,1.295966 -0.244261,-0.571151 -0.611649,-1.180661 -0.907455,-1.633624 -0.01363,-0.720266 -0.0055,-1.2480102 -0.01297,-1.2367222 -0.06151,0.09307 -0.118867,0.4760702 -0.164507,0.9700032 -0.179882,-0.264639 -0.303841,-0.431226 -0.303841,-0.431226 0,0 -0.01789,0.511208 0.235445,1.415468 -0.02972,0.589583 -0.04142,1.181948 -0.02619,1.576161 -0.260882,-0.907797 -0.809565,-2.136297 -0.809565,-2.136297 0,0 0.289297,2.060426 0.53471,2.912045 0.06628,0.229989 0.151688,0.49182 0.241293,0.75134 -0.223821,-0.245986 -0.448417,-0.466896 -0.64633,-0.635906 -1.619411,-1.382907 -3.160675,-1.980305 -3.041717,-1.883815 0.40436,0.327978 1.567607,1.031001 2.658546,2.174435 0.922171,0.966544 1.753427,2.283095 1.989334,2.668463 0.02866,0.104064 0.09791,0.18134 0.21663,0.22324 0,0 0.977109,-1.655083 2.079087,-2.810085 1.101977,-1.155003 2.276791,-1.865259 2.685244,-2.196556 0.120161,-0.09746 -1.436687,0.505985 -3.072483,1.902885 -0.06565,0.05606 -0.134201,0.117957 -0.204679,0.184339 0.206026,-0.344832 0.395992,-0.731503 0.549965,-1.160953 0.79462,-2.216299 0.946866,-4.4658302 0.946866,-4.4658302 0,0 -2.035673,3.3266652 -2.46175,4.4398952 -0.0112,0.02927 -0.02264,0.05953 -0.03407,0.09026 0.01284,-0.08564 0.02662,-0.172222 0.04119,-0.2596 0.06939,-0.260443 0.116373,-0.501283 0.130181,-0.705319 0.240921,-1.200935 0.551063,-2.3198443 0.536235,-2.306396 -0.106932,0.09698 -0.327166,0.665089 -0.549202,1.335121 -0.06289,-1.3687943 -0.260363,-3.2352092 -0.260363,-3.2352092 z m -1.184853,4.4777802 c 0.02586,0.06561 0.05279,0.132381 0.08111,0.200357 0.156639,0.375935 0.280148,0.740674 0.377576,1.079081 -0.05855,0.193963 -0.115871,0.384317 -0.169845,0.56751 -0.09884,-0.444671 -0.189838,-0.869489 -0.227818,-1.19655 -0.02441,-0.208998 -0.04433,-0.428106 -0.06102,-0.650398 z m 0.682435,2.21588 c 0.01125,0.05889 0.02155,0.115711 0.03102,0.170354 -0.0016,0.02904 -0.0031,0.0582 -0.0046,0.08747 -0.05977,0.20027 -0.115462,0.39112 -0.166287,0.567 -0.02093,-0.113542 -0.04442,-0.230729 -0.06916,-0.349862 0.06688,-0.147962 0.137544,-0.307935 0.209002,-0.474958 z" />
        <path
           id="path16377-7"
           style="display:inline;fill:#000000;fill-opacity:1;stroke:none;stroke-width:0.21174px;stroke-linecap:butt;stroke-linejoin:miter;stroke-opacity:1"
           d="m 55.166869,-2.723548 c 0,0 0.01122,2.07160725 -0.0923,3.15791425 -0.03608,0.378454 -0.133755,0.82632895 -0.257312,1.29596495 -0.244261,-0.571151 -0.611649,-1.18065995 -0.907455,-1.63362295 -0.01363,-0.720266 -0.0055,-1.24801025 -0.01297,-1.23672225 -0.06151,0.09307 -0.118867,0.47607025 -0.164507,0.97000325 -0.179882,-0.264639 -0.303841,-0.431226 -0.303841,-0.431226 0,0 -0.01789,0.511208 0.235445,1.415468 -0.02972,0.58958195 -0.04142,1.18194695 -0.02619,1.57615995 -0.260882,-0.907797 -0.809565,-2.13629595 -0.809565,-2.13629595 0,0 0.289297,2.06042495 0.53471,2.91204395 0.06628,0.229989 0.151688,0.49182 0.241293,0.75134 -0.223821,-0.245986 -0.448417,-0.466896 -0.64633,-0.635906 -1.619411,-1.382907 -3.160675,-1.980305 -3.041717,-1.883815 0.40436,0.327978 1.567607,1.031001 2.658546,2.174435 0.922171,0.966544 1.753427,2.283095 1.989334,2.668463 0.02866,0.104064 0.09791,0.18134 0.21663,0.22324 0,0 0.977109,-1.655083 2.079087,-2.810085 1.101977,-1.155003 2.276791,-1.865259 2.685244,-2.196556 0.120161,-0.09746 -1.436687,0.505985 -3.072483,1.902885 -0.06565,0.05606 -0.134201,0.117957 -0.204679,0.184339 0.206026,-0.344832 0.395992,-0.731503 0.549965,-1.160953 0.79462,-2.21629795 0.946866,-4.4658292 0.946866,-4.4658292 0,0 -2.035673,3.3266642 -2.46175,4.4398942 -0.0112,0.02927 -0.02264,0.05953 -0.03407,0.09026 0.01284,-0.08564 0.02662,-0.172222 0.04119,-0.2596 0.06939,-0.260443 0.116373,-0.501283 0.130181,-0.705319 0.240921,-1.20093395 0.551063,-2.31984325 0.536235,-2.30639495 -0.106932,0.09698 -0.327166,0.665089 -0.549202,1.335121 -0.06289,-1.3687943 -0.260363,-3.23520925 -0.260363,-3.23520925 z m -1.184853,4.4777792 c 0.02586,0.06561 0.05279,0.132381 0.08111,0.200357 0.156639,0.375935 0.280148,0.740674 0.377576,1.079081 -0.05855,0.193963 -0.115871,0.384317 -0.169845,0.56751 -0.09884,-0.444671 -0.189838,-0.869489 -0.227818,-1.19655 -0.02441,-0.208998 -0.04433,-0.428106 -0.06102,-0.650398 z m 0.682435,2.21588 c 0.01125,0.05889 0.02155,0.115711 0.03102,0.170354 -0.0016,0.02904 -0.0031,0.0582 -0.0046,0.08747 -0.05977,0.20027 -0.115462,0.39112 -0.166287,0.567 -0.02093,-0.113542 -0.04442,-0.230729 -0.06916,-0.349862 0.06688,-0.147962 0.137544,-0.307935 0.209002,-0.474958 z" />
        <path
           id="path16377-1"
           style="display:inline;fill:#000000;fill-opacity:1;stroke:none;stroke-width:0.21174px;stroke-linecap:butt;stroke-linejoin:miter;stroke-opacity:1"
           d="m 63.45029,6.9023974 c 0,0 0.01122,2.0716067 -0.0923,3.1579136 -0.03608,0.378454 -0.133755,0.826329 -0.257312,1.295965 -0.244261,-0.571151 -0.611649,-1.18066 -0.907455,-1.6336229 -0.01363,-0.720266 -0.0055,-1.2480097 -0.01297,-1.2367217 -0.06151,0.09307 -0.118867,0.4760697 -0.164507,0.9700027 -0.179882,-0.264639 -0.303841,-0.431226 -0.303841,-0.431226 0,0 -0.01789,0.511208 0.235445,1.4154679 -0.02972,0.589582 -0.04142,1.181947 -0.02619,1.57616 -0.260882,-0.907797 -0.809565,-2.1362959 -0.809565,-2.1362959 0,0 0.289297,2.0604249 0.53471,2.9120439 0.06628,0.229989 0.151688,0.49182 0.241293,0.75134 -0.223821,-0.245986 -0.448417,-0.466896 -0.64633,-0.635906 -1.619411,-1.382907 -3.160675,-1.980305 -3.041717,-1.883815 0.40436,0.327978 1.567607,1.031001 2.658546,2.174435 0.922171,0.966544 1.753427,2.283095 1.989334,2.668463 0.02866,0.104064 0.09791,0.18134 0.21663,0.22324 0,0 0.977109,-1.655083 2.079087,-2.810085 1.101977,-1.155003 2.276791,-1.865259 2.685244,-2.196556 0.120161,-0.09746 -1.436687,0.505985 -3.072483,1.902885 -0.06565,0.05606 -0.134201,0.117957 -0.204679,0.184339 0.206026,-0.344832 0.395992,-0.731503 0.549965,-1.160953 0.79462,-2.2162979 0.946866,-4.4658286 0.946866,-4.4658286 0,0 -2.035673,3.3266636 -2.46175,4.4398936 -0.0112,0.02927 -0.02264,0.05953 -0.03407,0.09026 0.01284,-0.08564 0.02662,-0.172222 0.04119,-0.2596 0.06939,-0.260443 0.116373,-0.501283 0.130181,-0.705319 0.240921,-1.2009339 0.551063,-2.3198427 0.536235,-2.3063946 -0.106932,0.09698 -0.327166,0.6650887 -0.549202,1.3351206 -0.06289,-1.3687937 -0.260363,-3.2352086 -0.260363,-3.2352086 z m -1.184853,4.4777786 c 0.02586,0.06561 0.05279,0.132381 0.08111,0.200357 0.156639,0.375935 0.280148,0.740674 0.377576,1.079081 -0.05855,0.193963 -0.115871,0.384317 -0.169845,0.56751 -0.09884,-0.444671 -0.189838,-0.869489 -0.227818,-1.19655 -0.02441,-0.208998 -0.04433,-0.428106 -0.06102,-0.650398 z m 0.682435,2.21588 c 0.01125,0.05889 0.02155,0.115711 0.03102,0.170354 -0.0016,0.02904 -0.0031,0.0582 -0.0046,0.08747 -0.05977,0.20027 -0.115462,0.39112 -0.166287,0.567 -0.02093,-0.113542 -0.04442,-0.230729 -0.06916,-0.349862 0.06688,-0.147962 0.137544,-0.307935 0.209002,-0.474958 z" />
        <path
           id="path16377-0"
           style="display:inline;fill:#000000;fill-opacity:1;stroke:none;stroke-width:0.21174px;stroke-linecap:butt;stroke-linejoin:miter;stroke-opacity:1"
           d="m 49.046383,10.783739 c 0,0 -0.01122,2.071607 0.0923,3.157915 0.03608,0.378454 0.133755,0.826329 0.257312,1.295965 0.244261,-0.571151 0.611649,-1.18066 0.907455,-1.633623 0.01363,-0.720266 0.0055,-1.248011 0.01297,-1.236723 0.06151,0.09307 0.118867,0.47607 0.164507,0.970004 0.179882,-0.264639 0.303841,-0.431226 0.303841,-0.431226 0,0 0.01789,0.511208 -0.235445,1.415468 0.02972,0.589582 0.04142,1.181947 0.02619,1.57616 0.260882,-0.907797 0.809565,-2.136296 0.809565,-2.136296 0,0 -0.289297,2.060425 -0.53471,2.912044 -0.06628,0.229989 -0.151688,0.49182 -0.241293,0.75134 0.223821,-0.245986 0.448417,-0.466896 0.64633,-0.635906 1.619411,-1.382907 3.160675,-1.980305 3.041717,-1.883815 -0.40436,0.327978 -1.567607,1.031001 -2.658546,2.174435 -0.922171,0.966544 -1.753427,2.283095 -1.989334,2.668463 -0.02866,0.104064 -0.09791,0.18134 -0.21663,0.22324 0,0 -0.977109,-1.655083 -2.079087,-2.810085 -1.101977,-1.155003 -2.276791,-1.865259 -2.685244,-2.196556 -0.120161,-0.09746 1.436687,0.505985 3.072483,1.902885 0.06565,0.05606 0.134201,0.117957 0.204679,0.184339 -0.206026,-0.344832 -0.395992,-0.731503 -0.549965,-1.160953 -0.79462,-2.216298 -0.946866,-4.46583 -0.946866,-4.46583 0,0 2.035673,3.326665 2.46175,4.439895 0.0112,0.02927 0.02264,0.05953 0.03407,0.09026 -0.01284,-0.08564 -0.02662,-0.172222 -0.04119,-0.2596 -0.06939,-0.260443 -0.116373,-0.501283 -0.130181,-0.705319 -0.240921,-1.200934 -0.551063,-2.319844 -0.536235,-2.306396 0.106932,0.09698 0.327166,0.66509 0.549202,1.335122 0.06289,-1.368795 0.260363,-3.23521 0.260363,-3.23521 z m 1.184853,4.47778 c -0.02586,0.06561 -0.05279,0.132381 -0.08111,0.200357 -0.156639,0.375935 -0.280148,0.740674 -0.377576,1.079081 0.05855,0.193963 0.115871,0.384317 0.169845,0.56751 0.09884,-0.444671 0.189838,-0.869489 0.227818,-1.19655 0.02441,-0.208998 0.04433,-0.428106 0.06102,-0.650398 z m -0.682435,2.21588 c -0.01125,0.05889 -0.02155,0.115711 -0.03102,0.170354 0.0016,0.02904 0.0031,0.0582 0.0046,0.08747 0.05977,0.20027 0.115462,0.39112 0.166287,0.567 0.02093,-0.113542 0.04442,-0.230729 0.06916,-0.349862 -0.06688,-0.147962 -0.137544,-0.307935 -0.209002,-0.474958 z" />
        <path
           id="path16377-0-3"
           style="display:inline;fill:#000000;fill-opacity:1;stroke:none;stroke-width:0.21174px;stroke-linecap:butt;stroke-linejoin:miter;stroke-opacity:1"
           d="m 40.644477,-2.563814 c 0,0 -0.01122,2.071607 0.0923,3.157915 0.03608,0.378454 0.133755,0.826329 0.257312,1.295965 0.244261,-0.571151 0.611649,-1.18066 0.907455,-1.633623 0.01363,-0.720266 0.0055,-1.248011 0.01297,-1.236723 0.06151,0.09307 0.118867,0.47607 0.164507,0.970004 0.179882,-0.264639 0.303841,-0.431226 0.303841,-0.431226 0,0 0.01789,0.511208 -0.235445,1.415468 0.02972,0.589582 0.04142,1.181947 0.02619,1.57616 0.260882,-0.907797 0.809565,-2.136296 0.809565,-2.136296 0,0 -0.289297,2.060425 -0.53471,2.912044 -0.06628,0.229989 -0.151688,0.49182 -0.241293,0.75134 0.223821,-0.245986 0.448417,-0.466896 0.64633,-0.635906 1.619411,-1.382907 3.160675,-1.980305 3.041717,-1.883815 -0.40436,0.327978 -1.567607,1.031001 -2.658546,2.174435 -0.922171,0.966544 -1.753427,2.283095 -1.989334,2.668463 -0.02866,0.104064 -0.09791,0.18134 -0.21663,0.22324 0,0 -0.977109,-1.655083 -2.079087,-2.810085 -1.101977,-1.155003 -2.276791,-1.865259 -2.685244,-2.196556 -0.120161,-0.09746 1.436687,0.505985 3.072483,1.902885 0.06565,0.05606 0.134201,0.117957 0.204679,0.184339 -0.206026,-0.344832 -0.395992,-0.731503 -0.549965,-1.160953 -0.79462,-2.216298 -0.946866,-4.46583 -0.946866,-4.46583 0,0 2.035673,3.326665 2.46175,4.439895 0.0112,0.02927 0.02264,0.05953 0.03407,0.09026 -0.01284,-0.08564 -0.02662,-0.172222 -0.04119,-0.2596 -0.06939,-0.260443 -0.116373,-0.501283 -0.130181,-0.705319 -0.240921,-1.200934 -0.551063,-2.319844 -0.536235,-2.306396 0.106932,0.09698 0.327166,0.66509 0.549202,1.335122 0.06289,-1.368795 0.260363,-3.23521 0.260363,-3.23521 z m 1.184853,4.47778 c -0.02586,0.06561 -0.05279,0.132381 -0.08111,0.200357 -0.156639,0.375935 -0.280148,0.740674 -0.377576,1.079081 0.05855,0.193963 0.115871,0.384317 0.169845,0.56751 0.09884,-0.444671 0.189838,-0.869489 0.227818,-1.19655 0.02441,-0.208998 0.04433,-0.428106 0.06102,-0.650398 z m -0.682435,2.21588 c -0.01125,0.05889 -0.02155,0.115711 -0.03102,0.170354 0.0016,0.02904 0.0031,0.0582 0.0046,0.08747 0.05977,0.20027 0.115462,0.39112 0.166287,0.567 0.02093,-0.113542 0.04442,-0.230729 0.06916,-0.349862 C 41.289042,4.456846 41.218378,4.296873 41.14692,4.12985 Z" />
        <path
           id="path16377-0-7"
           style="display:inline;fill:#000000;fill-opacity:1;stroke:none;stroke-width:0.21174px;stroke-linecap:butt;stroke-linejoin:miter;stroke-opacity:1"
           d="m 69.443633,-4.470607 c 0,0 -0.01122,2.071607 0.0923,3.157915 0.03608,0.378454 0.133755,0.826329 0.257312,1.295965 0.244261,-0.571151 0.611649,-1.18066 0.907455,-1.633623 0.01363,-0.720266 0.0055,-1.248011 0.01297,-1.236723 0.06151,0.09307 0.118867,0.47607 0.164507,0.970004 0.179882,-0.264639 0.303841,-0.431226 0.303841,-0.431226 0,0 0.01789,0.511208 -0.235445,1.415468 0.02972,0.589582 0.04142,1.181947 0.02619,1.57616 0.260882,-0.907797 0.809565,-2.136296 0.809565,-2.136296 0,0 -0.289297,2.060425 -0.53471,2.912044 -0.06628,0.229989 -0.151688,0.49182 -0.241293,0.75134 0.223821,-0.245986 0.448417,-0.466896 0.64633,-0.635906 1.619411,-1.382907 3.160675,-1.980305 3.041717,-1.883815 -0.40436,0.327978 -1.567607,1.031001 -2.658546,2.174435 -0.922171,0.966544 -1.753427,2.283095 -1.989334,2.668463 -0.02866,0.104064 -0.09791,0.18134 -0.21663,0.22324 0,0 -0.977109,-1.655083 -2.079087,-2.810085 -1.101977,-1.155003 -2.276791,-1.865259 -2.685244,-2.196556 -0.120161,-0.09746 1.436687,0.505985 3.072483,1.902885 0.06565,0.05606 0.134201,0.117957 0.204679,0.184339 -0.206026,-0.344832 -0.395992,-0.731503 -0.549965,-1.160953 -0.79462,-2.216298 -0.946866,-4.46583 -0.946866,-4.46583 0,0 2.035673,3.326665 2.46175,4.439895 0.0112,0.02927 0.02264,0.05953 0.03407,0.09026 -0.01284,-0.08564 -0.02662,-0.172222 -0.04119,-0.2596 C 69.231102,0.18075 69.184119,-0.06009 69.170311,-0.264126 68.92939,-1.46506 68.619248,-2.58397 68.634076,-2.570522 c 0.106932,0.09698 0.327166,0.66509 0.549202,1.335122 0.06289,-1.368795 0.260363,-3.23521 0.260363,-3.23521 z m 1.184853,4.47778 c -0.02586,0.06561 -0.05279,0.132381 -0.08111,0.200357 -0.156639,0.375935 -0.280148,0.740674 -0.377576,1.079081 0.05855,0.193963 0.115871,0.384317 0.169845,0.56751 0.09884,-0.444671 0.189838,-0.869489 0.227818,-1.19655 0.02441,-0.208998 0.04433,-0.428106 0.06102,-0.650398 z m -0.682435,2.21588 c -0.01125,0.05889 -0.02155,0.115711 -0.03102,0.170354 0.0016,0.02904 0.0031,0.0582 0.0046,0.08747 0.05977,0.20027 0.115462,0.39112 0.166287,0.567 0.02093,-0.113542 0.04442,-0.230729 0.06916,-0.349862 C 70.088198,2.550053 70.017534,2.39008 69.946076,2.223057 Z" />
        <path
           id="path16377-0-4"
           style="display:inline;fill:#000000;fill-opacity:1;stroke:none;stroke-width:0.21174px;stroke-linecap:butt;stroke-linejoin:miter;stroke-opacity:1"
           d="m 75.495256,9.6436769 c 0,0 -0.01122,2.0716071 0.0923,3.1579151 0.03608,0.378454 0.133755,0.826329 0.257312,1.295965 0.244261,-0.571151 0.611649,-1.18066 0.907455,-1.633623 0.01363,-0.720266 0.0055,-1.248011 0.01297,-1.236723 0.06151,0.09307 0.118867,0.47607 0.164507,0.970004 0.179882,-0.264639 0.303841,-0.431226 0.303841,-0.431226 0,0 0.01789,0.511208 -0.235445,1.415468 0.02972,0.589582 0.04142,1.181947 0.02619,1.57616 0.260882,-0.907797 0.809565,-2.136296 0.809565,-2.136296 0,0 -0.289297,2.060425 -0.53471,2.912044 -0.06628,0.229989 -0.151688,0.49182 -0.241293,0.75134 0.223821,-0.245986 0.448417,-0.466896 0.64633,-0.635906 1.619411,-1.382907 3.160675,-1.980305 3.041717,-1.883815 -0.40436,0.327978 -1.567607,1.031001 -2.658546,2.174435 -0.922171,0.966544 -1.753427,2.283095 -1.989334,2.668463 -0.02866,0.104064 -0.09791,0.18134 -0.21663,0.22324 0,0 -0.977109,-1.655083 -2.079087,-2.810085 -1.101977,-1.155003 -2.276791,-1.865259 -2.685244,-2.196556 -0.120161,-0.09746 1.436687,0.505985 3.072483,1.902885 0.06565,0.05606 0.134201,0.117957 0.204679,0.184339 -0.206026,-0.344832 -0.395992,-0.731503 -0.549965,-1.160953 -0.79462,-2.216298 -0.946866,-4.46583 -0.946866,-4.46583 0,0 2.035673,3.326665 2.46175,4.439895 0.0112,0.02927 0.02264,0.05953 0.03407,0.09026 -0.01284,-0.08564 -0.02662,-0.172222 -0.04119,-0.2596 -0.06939,-0.260443 -0.116373,-0.501283 -0.130181,-0.705319 -0.240921,-1.200934 -0.551063,-2.319844 -0.536235,-2.306396 0.106932,0.09698 0.327166,0.66509 0.549202,1.335122 0.06289,-1.368795 0.260363,-3.2352101 0.260363,-3.2352101 z m 1.184853,4.4777801 c -0.02586,0.06561 -0.05279,0.132381 -0.08111,0.200357 -0.156639,0.375935 -0.280148,0.740674 -0.377576,1.079081 0.05855,0.193963 0.115871,0.384317 0.169845,0.56751 0.09884,-0.444671 0.189838,-0.869489 0.227818,-1.19655 0.02441,-0.208998 0.04433,-0.428106 0.06102,-0.650398 z m -0.682435,2.21588 c -0.01125,0.05889 -0.02155,0.115711 -0.03102,0.170354 0.0016,0.02904 0.0031,0.0582 0.0046,0.08747 0.05977,0.20027 0.115462,0.39112 0.166287,0.567 0.02093,-0.113542 0.04442,-0.230729 0.06916,-0.349862 -0.06688,-0.147962 -0.137544,-0.307935 -0.209002,-0.474958 z" />
      </g>
    </g>
  </g>
  <g
     inkscape:groupmode="layer"
     id="layer4"
     inkscape:label="Layer 4">
    <path
       style="fill:none;stroke:#b870e0;stroke-width:0.55;stroke-linejoin:round;stroke-dasharray:1.1, 1.1;stroke-dashoffset:0;stroke-opacity:1;paint-order:stroke fill markers;stop-color:#000000"
       d="m 97.679577,82.906247 c 0.336515,-0.299731 0.675513,-0.602928 1.00263,-0.889704 0.327236,-0.286713 0.642582,-0.557012 0.933905,-0.793425 0.290897,-0.236031 0.557758,-0.438188 0.790558,-0.592635 0.2324,-0.154064 0.43085,-0.260376 0.58863,-0.309927 0.15819,-0.04993 0.27572,-0.0431 0.3519,0.02188 0.0761,0.06499 0.11043,0.188478 0.10609,0.366226 -0.004,0.177269 -0.0468,0.408788 -0.12061,0.683631 -0.0737,0.274887 -0.17827,0.593158 -0.30252,0.938686 -0.12441,0.34602 -0.2688,0.719735 -0.41956,1.102615 -0.15088,0.382822 -0.30812,0.774813 -0.45764,1.155957 -0.14993,0.381526 -0.29202,0.75226 -0.413486,1.093886 -0.121405,0.341672 -0.221746,0.653816 -0.290775,0.922205 -0.06907,0.268382 -0.106327,0.49205 -0.104736,0.661562 0.0015,0.169465 0.04197,0.284317 0.12426,0.34059 0.08206,0.05676 0.206501,0.05409 0.370462,-0.0041 0.164085,-0.05817 0.367995,-0.172342 0.605765,-0.333727 0.23733,-0.161009 0.50884,-0.369664 0.80356,-0.610849 0.2946,-0.241241 0.61287,-0.515379 0.94152,-0.804323 0.3291,-0.289322 0.6683,-0.593008 1.00449,-0.892307 0.33652,-0.299729 0.66889,-0.593875 0.98498,-0.864982 0.31567,-0.270725 0.61441,-0.51755 0.88468,-0.724471 0.27017,-0.206975 0.51164,-0.373568 0.71585,-0.488172 0.20433,-0.11455 0.37139,-0.177111 0.49709,-0.181507 0.1257,-0.0044 0.2101,0.04886 0.25314,0.160234 0.0433,0.11092 0.0455,0.279561 0.0119,0.498019 -0.0345,0.218859 -0.10338,0.488204 -0.20003,0.795144 -0.0965,0.306988 -0.2199,0.651212 -0.35796,1.016313 -0.13812,0.36505 -0.29111,0.750958 -0.44464,1.137739 -0.15361,0.386737 -0.30813,0.774813 -0.45001,1.145063 -0.14152,0.369861 -0.27004,0.721469 -0.37313,1.037562 -0.10318,0.31608 -0.18055,0.59614 -0.22297,0.827233 -0.0428,0.231467 -0.0503,0.413545 -0.0173,0.538769 0.0333,0.125287 0.10684,0.19374 0.2222,0.2036 0.11517,0.01036 0.27232,-0.03832 0.46707,-0.139439 0.19493,-0.10159 0.42772,-0.25604 0.69057,-0.452556 0.26272,-0.196568 0.55559,-0.435148 0.86691,-0.699806 0.31144,-0.264603 0.64136,-0.555277 0.97664,-0.853274 0.33527,-0.297996 0.67507,-0.602553 1.00663,-0.895343 0.33116,-0.292408 0.65343,-0.572192 0.95391,-0.82167 0.30062,-0.249421 0.57893,-0.467623 0.82463,-0.640338 0.24611,-0.173096 0.45931,-0.300277 0.63331,-0.372325 0.17386,-0.07211 0.30856,-0.08907 0.40112,-0.04706 0.0927,0.04154 0.14355,0.142077 0.15491,0.297655 0.0117,0.155639 -0.0167,0.366736 -0.0785,0.623751 -0.0603,0.256756 -0.15471,0.559688 -0.27067,0.894012 -0.11579,0.333832 -0.25427,0.699348 -0.40204,1.077838 -0.14737,0.378102 -0.3043,0.769663 -0.45672,1.154656 -0.15189,0.384627 -0.29945,0.76267 -0.42853,1.115193 -0.12923,0.352458 -0.23999,0.679407 -0.32141,0.965142 -0.0816,0.285176 -0.13281,0.528868 -0.14656,0.720064 -0.0131,0.190821 0.0102,0.32856 0.0761,0.408297 0.0656,0.07975 0.17295,0.100879 0.32093,0.06526 0.14792,-0.03566 0.33643,-0.128103 0.56045,-0.270465 0.22382,-0.14187 0.48297,-0.33318 0.76798,-0.560975 0.28482,-0.227305 0.59551,-0.491096 0.91967,-0.773474 0.32403,-0.282427 0.66144,-0.583472 0.99828,-0.883636 0.33704,-0.300641 0.67322,-0.599949 0.99539,-0.879781 0.32198,-0.279346 0.62959,-0.538797 0.91099,-0.761335 0.28112,-0.222097 0.53576,-0.407397 0.75466,-0.542327 0.21878,-0.134975 0.40174,-0.219611 0.54404,-0.247481 0.14209,-0.02739 0.24335,0.0025 0.30298,0.0904 0.0597,0.08798 0.0779,0.23401 0.0588,0.432586 -0.02,0.197971 -0.0757,0.449103 -0.16077,0.740061 -0.0857,0.291309 -0.19976,0.623026 -0.33178,0.979391 -0.13155,0.355993 -0.28057,0.736215 -0.43349,1.122129 -0.15255,0.385494 -0.30904,0.776116 -0.45547,1.152919 -0.14625,0.376326 -0.28211,0.738384 -0.39491,1.067867 -0.11258,0.329555 -0.20216,0.626545 -0.2586,0.8771 -0.0568,0.250523 -0.079,0.453894 -0.0609,0.601843 0.017,0.14778 0.074,0.239666 0.17235,0.273425 0.0988,0.0333 0.23921,0.0081 0.41866,-0.07184 0.17956,-0.07985 0.39831,-0.214844 0.64878,-0.394005 0.25046,-0.179167 0.53301,-0.403493 0.83639,-0.65682 0.30331,-0.253369 0.62803,-0.53663 0.96041,-0.83078 0.3325,-0.294088 0.67302,-0.599463 1.00727,-0.89621 0.33437,-0.296687 0.6624,-0.584767 0.97105,-0.845468 0.30858,-0.260741 0.5977,-0.494131 0.85651,-0.685006 0.25842,-0.190487 0.48626,-0.338006 0.67561,-0.431791 0.18948,-0.09373 0.34044,-0.133742 0.45003,-0.115593 0.10965,0.01817 0.17698,0.09525 0.20423,0.228754 0.0275,0.133037 0.0147,0.323382 -0.0334,0.561327 -0.0475,0.238017 -0.12891,0.524724 -0.2363,0.845876 -0.10643,0.320871 -0.23781,0.676373 -0.38117,1.048835 -0.14344,0.372429 -0.29854,0.761365 -0.45207,1.148154 -0.15361,0.386743 -0.30504,0.770474 -0.44105,1.132481 -0.13623,0.362495 -0.25644,0.702387 -0.34898,1.003735 -0.0925,0.301363 -0.15763,0.56405 -0.18604,0.775638 -0.0296,0.211878 -0.0208,0.372368 0.0283,0.475029 0.0489,0.103164 0.13965,0.147767 0.2711,0.135059 0.13157,-0.01262 0.30421,-0.08301 0.51381,-0.204922 0.20951,-0.121962 0.45592,-0.295502 0.73021,-0.508066 0.2742,-0.212604 0.57635,-0.464203 0.89447,-0.738401 0.31794,-0.273708 0.65219,-0.570455 0.98869,-0.87019 0.33685,-0.300155 0.6754,-0.602984 1.00293,-0.89014 0.32716,-0.286761 0.64259,-0.557013 0.93412,-0.793913 0.29132,-0.236408 0.55817,-0.438563 0.79118,-0.5935 0.2328,-0.154447 0.43115,-0.260812 0.58966,-0.311176 0.15842,-0.05042 0.27634,-0.04399 0.35283,0.02058 0.0764,0.06451 0.11073,0.188047 0.1069,0.364875 -0.004,0.177316 -0.0465,0.408358 -0.11989,0.682809 -0.0732,0.274502 -0.17811,0.592674 -0.3022,0.938264 -0.1242,0.345544 -0.26851,0.7193 -0.41937,1.102124 -0.15037,0.382457 -0.30768,0.774438 -0.45764,1.155958 -0.14982,0.381586 -0.29203,0.752256 -0.41337,1.093941 -0.12169,0.34208 -0.22235,0.654685 -0.29167,0.923512 -0.0688,0.268396 -0.10654,0.492496 -0.10544,0.662377 0.001,0.16996 0.0414,0.285186 0.12345,0.341946 0.0821,0.05677 0.20579,0.05491 0.36953,-0.0028 0.1637,-0.05777 0.3677,-0.171907 0.60502,-0.332917 0.23715,-0.160515 0.50835,-0.368742 0.80297,-0.609976 0.29442,-0.240746 0.61256,-0.514942 0.94133,-0.803833 0.32867,-0.288936 0.66828,-0.59301 1.0045,-0.892306 0.3361,-0.299341 0.6689,-0.593875 0.98486,-0.865036 0.31609,-0.271104 0.61502,-0.518423 0.88528,-0.725346 0.27059,-0.20735 0.51195,-0.373999 0.71659,-0.488983 0.20455,-0.115027 0.37201,-0.17798 0.49789,-0.182863 0.12603,-0.0048 0.21057,0.04843 0.2541,0.158929 0.0437,0.110536 0.0461,0.278696 0.013,0.497213 -0.0344,0.218372 -0.10292,0.487278 -0.19896,0.793871 -0.0964,0.306506 -0.21988,0.651223 -0.35775,1.015829 -0.13795,0.365113 -0.29078,0.750528 -0.4443,1.137318 -0.1539,0.387214 -0.30845,0.77524 -0.45023,1.145545 -0.14152,0.369829 -0.2701,0.721456 -0.37354,1.037936 -0.10316,0.31608 -0.18083,0.59662 -0.22392,0.82853 -0.0427,0.23152 -0.0511,0.41393 -0.0177,0.5397 0.0327,0.12567 0.1061,0.19455 0.22127,0.2049 0.11477,0.0108 0.27171,-0.0375 0.46633,-0.13862 0.19443,-0.10067 0.42722,-0.25513 0.68964,-0.45126 0.26284,-0.19651 0.55528,-0.43472 0.86672,-0.69932 0.31105,-0.26421 0.64106,-0.55484 0.97601,-0.852397 0.3352,-0.29804 0.6754,-0.60299 1.00685,-0.895834 0.33125,-0.292353 0.65374,-0.572621 0.95432,-0.822048 0.30063,-0.24942 0.57911,-0.468116 0.82527,-0.641203 0.24603,-0.17314 0.45961,-0.300717 0.63378,-0.373254 0.17432,-0.07248 0.30929,-0.08989 0.40207,-0.04836 0.0932,0.04112 0.14415,0.141206 0.15595,0.29641 0.0118,0.155168 -0.0163,0.365842 -0.0773,0.62247 -0.0611,0.256568 -0.15446,0.559249 -0.27047,0.893524 -0.1157,0.333884 -0.25394,0.698925 -0.40127,1.077032 -0.14765,0.37855 -0.3047,0.77005 -0.45671,1.15466 -0.15238,0.385 -0.29976,0.7631 -0.42927,1.116 -0.12914,0.35252 -0.24021,0.6799 -0.32171,0.96558 -0.0818,0.28566 -0.13322,0.52978 -0.14717,0.72097 -0.0132,0.19125 0.0101,0.32943 0.0751,0.4096 0.0652,0.0801 0.17233,0.10175 0.31991,0.0665 0.14769,-0.0352 0.3361,-0.12767 0.55963,-0.26911 0.22384,-0.14187 0.48253,-0.33281 0.76733,-0.56011 0.28475,-0.22735 0.59522,-0.49067 0.91924,-0.7731 0.32384,-0.28194 0.6613,-0.58298 0.99831,-0.88363 0.33683,-0.30016 0.67322,-0.59995 0.99549,-0.87973 0.32221,-0.27982 0.62992,-0.53923 0.91133,-0.76176 0.28132,-0.22258 0.53607,-0.40784 0.75514,-0.543257 0.21921,-0.13536 0.40237,-0.220475 0.54508,-0.248728 0.14242,-0.02781 0.24384,0.0016 0.30393,0.08912 0.0599,0.0875 0.0785,0.23315 0.0595,0.431215 -0.02,0.19801 -0.0748,0.44832 -0.16006,0.7392 -0.0851,0.29095 -0.19947,0.6226 -0.33103,0.97858 -0.13155,0.35597 -0.28054,0.73622 -0.43315,1.12171 -0.15306,0.38586 -0.30937,0.77654 -0.45557,1.15287 -0.14643,0.37681 -0.28244,0.73881 -0.39544,1.06878 -0.11313,0.32996 -0.20282,0.62737 -0.25918,0.87798 -0.0568,0.25049 -0.0797,0.45474 -0.062,0.60307 0.0168,0.14828 0.0735,0.24059 0.17173,0.2743 0.0984,0.0338 0.23859,0.009 0.41783,-0.0705 0.17918,-0.0795 0.39772,-0.21398 0.6482,-0.39314 0.25006,-0.17878 0.53235,-0.40263 0.83562,-0.65601 0.3031,-0.25289 0.62773,-0.5362 0.96021,-0.83029 0.33251,-0.29409 0.67261,-0.59908 1.00699,-0.89577 0.33456,-0.29717 0.66269,-0.58521 0.97154,-0.84639 0.30867,-0.2607 0.59813,-0.49451 0.85683,-0.68544 0.2588,-0.19088 0.48654,-0.33844 0.67665,-0.43304 0.18968,-0.0942 0.34104,-0.13461 0.45063,-0.11646 0.10982,0.0177 0.1776,0.0944 0.20535,0.22696 0.0276,0.13309 0.0145,0.32293 -0.0325,0.56053 -0.0475,0.23802 -0.12885,0.52421 -0.23563,0.84502 -0.10628,0.32038 -0.23749,0.67594 -0.38097,1.04835 -0.14299,0.37204 -0.29841,0.76142 -0.45206,1.14815 -0.15351,0.38679 -0.30504,0.77047 -0.44125,1.13297 -0.13608,0.36201 -0.25642,0.70239 -0.34929,1.00417 -0.0929,0.30173 -0.15799,0.56448 -0.18684,0.77644 -0.0297,0.21191 -0.0213,0.37278 0.0275,0.47638 0.0489,0.10316 0.13892,0.14859 0.27017,0.13639 0.13118,-0.0122 0.30391,-0.0826 0.51306,-0.20412 0.2093,-0.12148 0.45542,-0.29457 0.7293,-0.50676 0.27427,-0.21256 0.57603,-0.46377 0.89427,-0.73791 0.31786,-0.27375 0.65217,-0.57046 0.9887,-0.87019 0.3364,-0.29978 0.67539,-0.60299 1.00281,-0.8902 0.32725,-0.28671 0.64288,-0.55745 0.93453,-0.79429 0.29165,-0.23684 0.5587,-0.43948 0.7918,-0.59437 0.23302,-0.15492 0.43177,-0.26167 0.59046,-0.31253 0.15853,-0.0504 0.27708,-0.0448 0.35346,0.0197 0.0769,0.0641 0.11165,0.18674 0.10794,0.36363 -0.004,0.17683 -0.0453,0.40755 -0.11928,0.68194 -0.073,0.274 -0.17754,0.59179 -0.30137,0.9369 -0.12411,0.34559 -0.26852,0.7193 -0.41894,1.10175 -0.15065,0.38289 -0.30813,0.77481 -0.45764,1.15596 -0.14993,0.38153 -0.29235,0.75269 -0.41409,1.09475 -0.12159,0.34213 -0.22258,0.65517 -0.292,0.92395 -0.0689,0.26891 -0.10714,0.49336 -0.10629,0.66373 0.001,0.17035 0.0408,0.28605 0.12252,0.34325 0.0816,0.0571 0.20512,0.0558 0.36883,-0.002 0.16346,-0.0573 0.36672,-0.17061 0.60388,-0.33114 0.23745,-0.16094 0.50822,-0.36879 0.80263,-0.60954 0.29435,-0.24079 0.61226,-0.51451 0.94093,-0.80345 0.32878,-0.28889 0.66807,-0.59252 1.00449,-0.89231 0.33621,-0.29929 0.66887,-0.59388 0.98495,-0.86498 0.31601,-0.27116 0.61536,-0.51885 0.88592,-0.72621 0.27049,-0.2074 0.51226,-0.37444 0.7171,-0.4899 0.20495,-0.11542 0.37262,-0.17885 0.49896,-0.18411 0.1263,-0.005 0.21104,0.0475 0.25499,0.15762 0.0439,0.11006 0.0468,0.27784 0.013,0.49629 -0.0334,0.21805 -0.10202,0.48648 -0.19863,0.79294 -0.0959,0.30612 -0.21928,0.65034 -0.35702,1.01501 -0.13814,0.36505 -0.29079,0.75052 -0.44433,1.13731 -0.15361,0.38674 -0.30843,0.77524 -0.45001,1.14506 -0.14168,0.37032 -0.27068,0.72233 -0.37406,1.03886 -0.10361,0.3165 -0.1815,0.59744 -0.22451,0.8294 -0.0431,0.23192 -0.0512,0.41485 -0.0187,0.54096 0.0327,0.12617 0.10556,0.19547 0.22033,0.2062 0.11486,0.0108 0.2711,-0.0366 0.46549,-0.13728 0.19433,-0.10071 0.42679,-0.25474 0.68935,-0.45081 0.26213,-0.19569 0.55467,-0.43385 0.86568,-0.69808 0.31114,-0.26416 0.64103,-0.55484 0.97604,-0.85239 0.33494,-0.29757 0.67507,-0.60256 1.00663,-0.89535 0.33146,-0.29284 0.65404,-0.57306 0.95452,-0.82254 0.30091,-0.24985 0.57954,-0.46849 0.82615,-0.64251 0.24645,-0.17352 0.45994,-0.30114 0.63455,-0.37406 0.17452,-0.073 0.30979,-0.0908 0.40299,-0.0497 0.0935,0.0407 0.14479,0.14034 0.15676,0.29505 0.0118,0.15521 -0.0161,0.3654 -0.0752,0.62179 -0.0602,0.25628 -0.15401,0.55883 -0.26939,0.89228 -0.1158,0.33384 -0.25396,0.69892 -0.40142,1.07697 -0.14738,0.37812 -0.30428,0.76967 -0.45672,1.15466 -0.15188,0.38463 -0.29975,0.76311 -0.42913,1.11606 -0.12929,0.35297 -0.24068,0.68026 -0.32239,0.96643 -0.0818,0.28564 -0.13337,0.53024 -0.14787,0.72179 -0.0132,0.19175 0.009,0.33036 0.0742,0.4109 0.0649,0.0806 0.17171,0.10261 0.31908,0.0679 0.1473,-0.0348 0.3355,-0.1268 0.55903,-0.26824 0.22309,-0.14105 0.4819,-0.33194 0.76628,-0.55887 0.28483,-0.2273 0.59492,-0.49022 0.91907,-0.7726 0.32381,-0.28195 0.66114,-0.58304 0.99799,-0.8832 0.33703,-0.30064 0.67352,-0.60038 0.99569,-0.88022 0.32227,-0.27978 0.63032,-0.53961 0.91192,-0.76263 0.28143,-0.22253 0.53638,-0.40827 0.75588,-0.54407 0.2194,-0.13584 0.40298,-0.22134 0.54569,-0.24959 0.14265,-0.0283 0.24449,7e-4 0.30475,0.0878 0.0605,0.0871 0.0792,0.23228 0.0607,0.42998 -0.0179,0.19777 -0.0748,0.44782 -0.15955,0.73832 -0.0849,0.29047 -0.19914,0.62215 -0.33048,0.97767 -0.13166,0.35598 -0.28046,0.73627 -0.43319,1.12169 -0.15266,0.38548 -0.30905,0.77612 -0.45546,1.15293 -0.14643,0.37677 -0.28243,0.73882 -0.39573,1.06922 -0.11312,0.32992 -0.20313,0.6278 -0.25997,0.87877 -0.0568,0.251 -0.0798,0.4552 -0.0631,0.60394 0.0162,0.14868 0.0727,0.24139 0.1708,0.27559 0.0981,0.0342 0.23796,0.01 0.41677,-0.0692 0.17927,-0.0794 0.39722,-0.21304 0.64726,-0.39183 0.25014,-0.17873 0.53205,-0.40219 0.83513,-0.65509"
       title="sin(x)"
       id="path6228"
       sodipodi:nodetypes="ccccccccscccccccccscsccscccccccccccccscccccccsccccccccccccccccccccscccccsccccccscccccccccccccccccccccccccccsccccccccccccccccccccccccccccsccccccccccccccccccccscccccscccsccccccccccccccccccccscccccccccccsccccccccssccccccccccscccscccccccccccsccscccccccccccsssccccc" />
    <path
       style="fill:none;stroke:#b570e0;stroke-width:0.55;stroke-linejoin:round;stroke-dasharray:1.1, 1.1;stroke-dashoffset:0;stroke-opacity:1;paint-order:stroke fill markers;stop-color:#000000"
       d="m 76.364001,70.125744 c -0.14299,0.372043 -0.29841,0.761417 -0.45206,1.148146 -0.15351,0.386789 -0.30504,0.770473 -0.44125,1.132972 -0.13608,0.36201 -0.25642,0.702387 -0.34929,1.004167 -0.0929,0.301737 -0.15799,0.56448 -0.18684,0.776444 -0.0297,0.211909 -0.0213,0.37278 0.0275,0.476383 0.0489,0.103154 0.13892,0.148584 0.27017,0.136385 0.13118,-0.01224 0.30391,-0.08257 0.51306,-0.204116 0.2093,-0.121482 0.45542,-0.294576 0.7293,-0.506761 0.27427,-0.212561 0.57603,-0.463774 0.89427,-0.737913 0.31786,-0.273753 0.65217,-0.57046 0.9887,-0.870193 0.3364,-0.299774 0.67539,-0.602984 1.00281,-0.890193 0.32725,-0.286715 0.64288,-0.55745 0.93453,-0.794293 0.29165,-0.236836 0.5587,-0.439481 0.7918,-0.594367 0.23302,-0.154925 0.43177,-0.261676 0.59046,-0.312529 0.15853,-0.05036 0.27708,-0.0448 0.35346,0.01972 0.0769,0.06414 0.11165,0.186739 0.10794,0.363624 -0.004,0.176836 -0.0453,0.407552 -0.11928,0.681942 -0.073,0.274002 -0.17754,0.591794 -0.30137,0.936904 -0.12411,0.34559 -0.26852,0.719298 -0.41894,1.101747 -0.15065,0.382893 -0.30813,0.77481 -0.45764,1.155955 -0.14993,0.381533 -0.29235,0.752692 -0.41409,1.094759 -0.12159,0.342123 -0.22258,0.655166 -0.292,0.923941 -0.0689,0.26891 -0.10714,0.493364 -0.10629,0.663732 10e-4,0.170352 0.0408,0.286056 0.12252,0.34325 0.0816,0.05713 0.20512,0.05577 0.36883,-0.002 0.16346,-0.0573 0.36672,-0.170612 0.60388,-0.331134 0.23745,-0.160943 0.50822,-0.368793 0.80263,-0.609541 0.29435,-0.24079 0.61226,-0.514513 0.94093,-0.803456 0.32878,-0.288886 0.66807,-0.59252 1.00449,-0.892303 0.33621,-0.299295 0.66887,-0.593883 0.98495,-0.864988 0.31601,-0.271151 0.61536,-0.51885 0.88592,-0.72621 0.27049,-0.207396 0.51226,-0.374431 0.7171,-0.4899 0.20495,-0.115413 0.37262,-0.178849 0.49896,-0.184105 0.1263,-0.0053 0.21104,0.0475 0.25499,0.157623 0.0439,0.110056 0.0468,0.277836 0.013,0.496282 -0.0334,0.218055 -0.10202,0.486489 -0.19863,0.79294 -0.0959,0.306127 -0.21928,0.650345 -0.35702,1.015011 -0.13814,0.365056 -0.29079,0.750525 -0.44433,1.13731 -0.15361,0.386746 -0.30843,0.775246 -0.45001,1.145061 -0.14168,0.370319 -0.27068,0.722331 -0.37406,1.038862 -0.10361,0.316499 -0.1815,0.597436 -0.22451,0.829401 -0.0431,0.231915 -0.0512,0.414854 -0.0187,0.540963 0.0327,0.126162 0.10556,0.195469 0.22033,0.206199 0.11486,0.01083 0.2711,-0.03659 0.46549,-0.137278 0.19433,-0.100717 0.42679,-0.254745 0.68935,-0.450812 0.26213,-0.195694 0.55467,-0.433851 0.86568,-0.698078 0.31114,-0.264166 0.64103,-0.554846 0.97604,-0.852396 0.33494,-0.297567 0.67507,-0.602555 1.00663,-0.895347 0.33146,-0.292837 0.65404,-0.573059 0.95452,-0.822539 0.30091,-0.249856 0.57954,-0.468492 0.82615,-0.642515 0.24645,-0.17352 0.45994,-0.30114 0.63455,-0.374056 0.17452,-0.07296 0.30979,-0.09081 0.40299,-0.04967 0.0935,0.04066 0.14479,0.140341 0.15676,0.295053 0.0118,0.155208 -0.0161,0.365396 -0.0752,0.621783 -0.0602,0.256283 -0.15401,0.558828 -0.26939,0.892282 -0.1158,0.333838 -0.25396,0.698918 -0.40142,1.076974 -0.14738,0.378114 -0.30428,0.769667 -0.45672,1.154656 -0.15188,0.384632 -0.29975,0.763106 -0.42913,1.116062 -0.12929,0.352971 -0.24068,0.680258 -0.32239,0.966433 -0.0818,0.285637 -0.13337,0.530235 -0.14787,0.721784 -0.0132,0.191748 0.009,0.330359 0.0742,0.4109 0.0649,0.08061 0.17171,0.102608 0.31908,0.06787 0.1473,-0.03479 0.3355,-0.126798 0.55903,-0.268239 0.22309,-0.141051 0.4819,-0.33194 0.76628,-0.558867 0.28483,-0.2273 0.59492,-0.490225 0.91907,-0.772603 0.32381,-0.281951 0.66114,-0.583039 0.99799,-0.8832 0.33703,-0.300642 0.67352,-0.600383 0.99569,-0.880215 0.32227,-0.279783 0.63032,-0.539612 0.91192,-0.762635 0.28143,-0.222532 0.53638,-0.408271 0.75588,-0.544071 0.2194,-0.13584 0.40298,-0.221342 0.54569,-0.249593 0.14265,-0.02828 0.24449,7.05e-4 0.30475,0.08776 0.0605,0.08713 0.0792,0.232287 0.0607,0.429985 -0.0179,0.197772 -0.0748,0.447818 -0.15955,0.738316 -0.0849,0.290469 -0.19914,0.622158 -0.33048,0.977669 -0.13166,0.355985 -0.28046,0.736272 -0.43319,1.121698 -0.15266,0.385474 -0.30905,0.776112 -0.45546,1.152923 -0.14643,0.376778 -0.28243,0.738819 -0.39573,1.069222 -0.11312,0.32992 -0.20313,0.627804 -0.25997,0.878776 -0.0568,0.250994 -0.0798,0.4552 -0.0631,0.603937 0.0162,0.148677 0.0727,0.241388 0.1708,0.275591 0.0981,0.03416 0.23796,0.0098 0.41677,-0.06924 0.17927,-0.0794 0.39722,-0.213047 0.64726,-0.391831 0.25014,-0.178733 0.53205,-0.402195 0.83513,-0.65509"
       title="sin(x)"
       id="path6228-2"
       sodipodi:nodetypes="ccccccccccccscccccccccccsccccccccssccccccccccscccscccccccccccsccscccccccccccsssccccc" />
    <ellipse
       style="display:inline;fill:none;fill-opacity:1;stroke:#ffffff;stroke-width:1.379;stroke-linejoin:round;stroke-dasharray:none;stroke-dashoffset:0.309921;stroke-opacity:1;paint-order:stroke fill markers;stop-color:#000000"
       id="path7668"
       cx="81.825859"
       cy="131.69379"
       rx="11.795712"
       ry="1.8733306" />
    <path
       style="display:inline;fill:none;stroke:#b86fe0;stroke-width:0.55;stroke-linejoin:round;stroke-dasharray:1.1, 1.1;stroke-dashoffset:0;stroke-opacity:1;paint-order:stroke fill markers;stop-color:#000000"
       d="m 75.708371,70.235748 c -0.335936,0.209232 -0.706471,0.429131 -1.089711,0.65312 -0.383761,0.224011 -0.779714,0.451969 -1.166007,0.676905 -0.38631,0.224817 -0.762421,0.446579 -1.106514,0.658229 -0.343561,0.211611 -0.655598,0.413268 -0.916754,0.59919 -0.261663,0.186073 -0.472479,0.356168 -0.620199,0.506719 -0.148241,0.150577 -0.232882,0.281462 -0.249374,0.390965 -0.0159,0.109485 0.03625,0.197687 0.155038,0.264995 0.118317,0.0676 0.303752,0.114169 0.545187,0.143333 0.241407,0.02909 0.539295,0.04068 0.877873,0.03962 0.338563,-0.0012 0.717833,-0.01499 1.116422,-0.03491 0.398602,-0.0198 0.817032,-0.0459 1.232422,-0.07094 0.414874,-0.02487 0.827197,-0.04908 1.213088,-0.06492 0.386374,-0.01614 0.746825,-0.02402 1.061483,-0.01778 0.31518,0.0062 0.584571,0.02672 0.79445,0.06561 0.209353,0.03931 0.358703,0.097 0.440911,0.175866 0.08169,0.07889 0.09573,0.179004 0.04214,0.300202 -0.05361,0.121093 -0.175396,0.263542 -0.357219,0.42459 -0.181293,0.161016 -0.423647,0.340942 -0.711248,0.535111 -0.28761,0.194167 -0.621519,0.402642 -0.981361,0.619336 -0.360362,0.216727 -0.746656,0.441653 -1.136525,0.667577 -0.389843,0.226044 -0.783772,0.453372 -1.158383,0.674534 -0.374584,0.221295 -0.72986,0.436425 -1.04545,0.639323 -0.315091,0.202603 -0.590485,0.392957 -0.809932,0.565871 -0.218955,0.172647 -0.381934,0.327948 -0.478292,0.462352 -0.09689,0.134684 -0.127069,0.248471 -0.08915,0.341134 0.038,0.09259 0.144547,0.163796 0.314753,0.215212 0.169669,0.0515 0.402953,0.08321 0.687093,0.09898 0.284156,0.0159 0.619163,0.01599 0.986213,0.0058 0.367572,-0.01009 0.767686,-0.03053 1.178496,-0.05414 0.410803,-0.02374 0.832291,-0.05066 1.241068,-0.07365 0.409267,-0.02324 0.805839,-0.04241 1.168317,-0.05109 0.362496,-0.0086 0.690358,-0.0064 0.96688,0.01185 0.276532,0.01823 0.500647,0.0527 0.661172,0.107164 0.16052,0.05438 0.256956,0.128747 0.284746,0.224405 0.02829,0.09567 -0.01319,0.213064 -0.119631,0.350637 -0.106514,0.137702 -0.278671,0.295744 -0.506256,0.471202 -0.227095,0.175159 -0.510116,0.367902 -0.831297,0.572531 -0.321198,0.204501 -0.681039,0.421211 -1.058187,0.643155 -0.377649,0.22225 -0.77209,0.449611 -1.161437,0.675484 -0.389843,0.226054 -0.773099,0.449908 -1.129381,0.665488 -0.355782,0.215303 -0.683577,0.422 -0.964564,0.6141 -0.281014,0.191999 -0.514707,0.369345 -0.687369,0.527538 -0.172646,0.15832 -0.284262,0.297479 -0.327697,0.415511 -0.0435,0.118032 -0.01926,0.214855 0.07314,0.29053 0.0918,0.07585 0.251352,0.130535 0.46938,0.166889 0.218695,0.03557 0.496049,0.05435 0.817827,0.05837 0.321792,0.0042 0.687325,-0.0055 1.077284,-0.02257 0.38992,-0.01718 0.804312,-0.04195 1.219692,-0.06698 0.415372,-0.02511 0.832292,-0.05067 1.228342,-0.0698 0.395561,-0.0189 0.769718,-0.03117 1.102189,-0.03034 0.332493,7.13e-4 0.622719,0.01471 0.855486,0.0466 0.233277,0.0316 0.40859,0.08134 0.517234,0.151842 0.108626,0.07072 0.150648,0.162035 0.124001,0.27468 -0.02612,0.112642 -0.121498,0.246718 -0.278371,0.400134 -0.157393,0.153444 -0.376838,0.326346 -0.645629,0.514652 -0.268798,0.188167 -0.586926,0.391858 -0.935588,0.604923 -0.348648,0.213203 -0.72784,0.435811 -1.11565,0.661221 -0.387821,0.225407 -0.783283,0.453074 -1.164995,0.676573 -0.381225,0.223252 -0.74767,0.441989 -1.078533,0.64951 -0.330842,0.207659 -0.625065,0.403876 -0.865892,0.583331 -0.241308,0.179724 -0.428723,0.342529 -0.551518,0.48531 -0.122819,0.142636 -0.181007,0.265296 -0.169999,0.366359 0.01047,0.101099 0.09015,0.180746 0.234377,0.240132 0.144025,0.06009 0.353614,0.09866 0.617055,0.120275 0.262734,0.02292 0.580011,0.02788 0.933825,0.0221 0.353294,-0.0057 0.743782,-0.02308 1.149489,-0.04522 0.405221,-0.02189 0.826211,-0.04865 1.239544,-0.07318 0.412829,-0.02414 0.818043,-0.04622 1.193248,-0.05872 0.375189,-0.01267 0.72038,-0.01576 1.017248,-0.0038 0.296411,0.01151 0.543893,0.03904 0.729815,0.0857 0.185365,0.04717 0.308895,0.112422 0.364121,0.199778 0.0553,0.08726 0.04182,0.195804 -0.03828,0.325247 -0.08011,0.129387 -0.226786,0.27958 -0.432008,0.447918 -0.204682,0.16831 -0.467377,0.354726 -0.772799,0.554316 -0.304903,0.199563 -0.652544,0.412301 -1.022053,0.63203 -0.369514,0.219592 -0.760893,0.446085 -1.151263,0.672296 -0.390881,0.226264 -0.780218,0.452125 -1.146688,0.670754 -0.36595,0.218607 -0.708504,0.429774 -1.007804,0.627573 -0.298805,0.197682 -0.554376,0.381701 -0.750937,0.547486 -0.196558,0.165671 -0.334115,0.313039 -0.40504,0.439505 -0.0704,0.126444 -0.07366,0.231942 -0.0087,0.316061 0.0649,0.08429 0.197973,0.147067 0.392369,0.191415 0.194294,0.04286 0.450281,0.06835 0.753242,0.07845 0.303499,0.0096 0.654249,0.0049 1.034021,-0.0092 0.379279,-0.01377 0.787019,-0.03655 1.201388,-0.06127 0.413861,-0.0245 0.833819,-0.05113 1.23751,-0.07252 0.40318,-0.02138 0.789557,-0.03734 1.137789,-0.04157 0.348233,-0.004 0.65834,0.0037 0.913984,0.02833 0.255747,0.02428 0.455858,0.06674 0.590736,0.130187 0.134999,0.06247 0.204552,0.145189 0.205907,0.249143 4.78e-4,0.104257 -0.06708,0.229756 -0.199026,0.375268 -0.131946,0.145632 -0.328512,0.311258 -0.57696,0.49324 -0.248435,0.181951 -0.549794,0.380294 -0.885214,0.589351 -0.335438,0.208989 -0.705966,0.42898 -1.089222,0.652834 -0.38323,0.223996 -0.779697,0.452084 -1.166007,0.6769 -0.386295,0.224963 -0.762421,0.44659 -1.106498,0.65836 -0.344083,0.21168 -0.656112,0.41343 -0.918281,0.59966 -0.26167,0.18598 -0.472984,0.35634 -0.621226,0.50691 -0.148235,0.15072 -0.233398,0.28164 -0.250389,0.39142 -0.01702,0.10983 0.03525,0.19787 0.153519,0.26546 0.117762,0.0677 0.302595,0.11499 0.543665,0.14363 0.240943,0.0293 0.538729,0.0415 0.87736,0.0397 0.338062,-8.7e-4 0.71681,-0.0146 1.115416,-0.0345 0.398599,-0.0199 0.816528,-0.0458 1.231918,-0.0708 0.415372,-0.0251 0.827207,-0.0491 1.213579,-0.0652 0.386914,-0.0162 0.747351,-0.0242 1.06252,-0.018 0.315176,0.006 0.585071,0.0264 0.794941,0.0656 0.210537,0.038 0.360219,0.0966 0.442402,0.17529 0.0828,0.0786 0.09675,0.17883 0.04359,0.29974 -0.05311,0.12102 -0.173889,0.26305 -0.355171,0.42408 -0.18131,0.16093 -0.423141,0.3408 -0.710752,0.53496 -0.287606,0.19406 -0.621004,0.4025 -0.98085,0.61905 -0.359336,0.21652 -0.745646,0.44135 -1.135499,0.66738 -0.39035,0.22623 -0.783789,0.45325 -1.158889,0.67468 -0.3746,0.22121 -0.72986,0.43643 -1.045982,0.63938 -0.315581,0.20289 -0.590976,0.39324 -0.810943,0.56618 -0.219444,0.17292 -0.382439,0.32811 -0.479802,0.46295 -0.0974,0.13474 -0.128101,0.24878 -0.09067,0.3416 0.03742,0.0927 0.144056,0.1639 0.313232,0.21549 0.169752,0.0514 0.402436,0.0834 0.686098,0.0994 0.283611,0.0163 0.618644,0.016 0.985708,0.006 0.367048,-0.01 0.767181,-0.0304 1.177973,-0.0541 0.41029,-0.0234 0.831802,-0.0504 1.241069,-0.0737 0.409292,-0.0231 0.805829,-0.0424 1.168323,-0.051 0.36297,-0.009 0.691379,-0.007 0.968416,0.0114 0.276465,0.0184 0.50113,0.0526 0.662156,0.10676 0.161094,0.0542 0.258095,0.12818 0.286256,0.22412 0.02829,0.0958 -0.01217,0.21265 -0.118124,0.35016 -0.106015,0.13746 -0.278165,0.29559 -0.50525,0.47074 -0.226563,0.17515 -0.509088,0.36773 -0.830276,0.57224 -0.320677,0.20449 -0.680524,0.42105 -1.057666,0.64313 -0.377149,0.22197 -0.77209,0.4496 -1.161437,0.67549 -0.389354,0.22578 -0.7731,0.44992 -1.129397,0.66537 -0.356272,0.21558 -0.684598,0.42229 -0.965586,0.61439 -0.281502,0.19228 -0.515212,0.36951 -0.688363,0.52798 -0.173169,0.15838 -0.285284,0.2978 -0.329239,0.41586 -0.04391,0.11822 -0.01977,0.21516 0.07163,0.29103 0.0914,0.0761 0.250351,0.13083 0.468261,0.16769 0.218178,0.0356 0.495046,0.0545 0.816296,0.059 0.321283,0.004 0.687314,-0.005 1.076741,-0.0225 0.389934,-0.017 0.803806,-0.0418 1.219196,-0.0668 0.415907,-0.0252 0.832798,-0.0509 1.228863,-0.0699 0.395534,-0.0189 0.769731,-0.0312 1.10268,-0.0306 0.332494,7.2e-4 0.623251,0.0146 0.857023,0.0461 0.233293,0.0317 0.40917,0.0808 0.518228,0.15176 0.109162,0.0703 0.151687,0.16153 0.125526,0.2742 -0.02561,0.1124 -0.120467,0.24641 -0.277355,0.39969 -0.156367,0.15325 -0.37581,0.32614 -0.644103,0.51417 -0.268792,0.1883 -0.586421,0.39169 -0.935067,0.60489 -0.348158,0.21295 -0.727333,0.43566 -1.114638,0.6609 -0.387828,0.22532 -0.783787,0.45323 -1.165517,0.67662 -0.381198,0.22335 -0.748184,0.44216 -1.079023,0.64978 -0.33085,0.20767 -0.625584,0.40389 -0.866913,0.58367 -0.241324,0.17964 -0.429238,0.34268 -0.552554,0.48548 -0.12331,0.14294 -0.182003,0.26573 -0.171546,0.36683 0.01001,0.10139 0.08915,0.18104 0.232865,0.24074 0.143613,0.0599 0.352641,0.0988 0.615482,0.12097 0.262824,0.0221 0.579516,0.028 0.933293,0.0222 0.353317,-0.006 0.743275,-0.0229 1.148491,-0.0447 0.405734,-0.022 0.82669,-0.0489 1.239542,-0.0732 0.413339,-0.0245 0.818559,-0.0464 1.194244,-0.0592 0.375226,-0.0126 0.720912,-0.0158 1.017763,-0.004 0.296921,0.0115 0.544876,0.0389 0.730865,0.0854 0.185785,0.0473 0.309773,0.11251 0.36564,0.19928 0.05569,0.0869 0.04284,0.19549 -0.03677,0.32468 -0.07961,0.1293 -0.226268,0.27939 -0.430454,0.44756 -0.204692,0.16831 -0.466876,0.35442 -0.771778,0.55396 -0.30492,0.19949 -0.652038,0.41216 -1.021562,0.63174 -0.368993,0.21956 -0.760374,0.4461 -1.151265,0.67233 -0.390348,0.2262 -0.780217,0.45212 -1.14667,0.67086 -0.366473,0.21867 -0.709011,0.42995 -1.008321,0.62776 -0.299317,0.19772 -0.554882,0.38185 -0.751964,0.54767 -0.197057,0.16594 -0.335137,0.31335 -0.40655,0.44009 -0.0709,0.12661 -0.07467,0.23214 -0.01028,0.31656 0.06439,0.0843 0.196929,0.14746 0.391216,0.19088 0.194336,0.0429 0.449261,0.069 0.752209,0.0789 0.302974,0.01 0.653753,0.005 1.033012,-0.009 0.379251,-0.0138 0.78702,-0.0365 1.200884,-0.0611 0.414364,-0.0249 0.834325,-0.0513 1.237492,-0.0726 0.403692,-0.0214 0.790063,-0.0375 1.138818,-0.0418 0.348788,-0.004 0.659333,0.003 0.915003,0.0281 0.255717,0.0243 0.456894,0.0663 0.592271,0.12949 0.135425,0.0627 0.205601,0.14492 0.206919,0.24882 0.0015,0.10399 -0.06607,0.22943 -0.197484,0.3749 -0.131467,0.14538 -0.327502,0.31098 -0.575949,0.49295 -0.247937,0.1817 -0.548772,0.37994 -0.884208,0.58889 -0.334916,0.20892 -0.705451,0.42881 -1.088691,0.65279 -0.38324,0.22399 -0.779206,0.45181 -1.165501,0.67677 -0.386818,0.225 -0.762938,0.44673 -1.107525,0.65853 -0.344076,0.2118 -0.656602,0.41373 -0.918797,0.59984 -0.262169,0.18622 -0.473489,0.35646 -0.622737,0.50752 -0.148748,0.15075 -0.234419,0.28192 -0.2514,0.3917"
       title="sin(x)"
       id="path6228-1-2"
       sodipodi:nodetypes="ccccccccccccccccccscccccccccscccccccccscsccscccccccccccccscccccccsccccccccccccccccccccscccccsccccccscccccccccccccccccccccccccccsccccccccccccccccccccccccccccsccccccccccccccccccccscccccscccsccccc" />
    <path
       style="display:inline;fill:none;stroke:#ff7c00;stroke-width:0.55;stroke-linejoin:round;stroke-dasharray:none;stroke-dashoffset:0.309921;stroke-opacity:1;paint-order:stroke fill markers;stop-color:#000000"
       d="m 97.08809,83.418797 c 0.34087,0.255956 0.659265,0.502051 0.936057,0.730296 0.276302,0.228063 0.511056,0.437986 0.689046,0.623575 0.178008,0.185461 0.299264,0.346503 0.356467,0.479747 0.05669,0.133139 0.04879,0.238423 -0.02459,0.315221 -0.07344,0.07688 -0.212366,0.125419 -0.410512,0.148552 -0.197745,0.02212 -0.454975,0.02054 -0.757321,-0.0014 -0.302823,-0.02245 -0.651118,-0.06412 -1.02729,-0.11816 -0.375709,-0.05366 -0.778782,-0.119293 -1.18824,-0.187542 -0.40897,-0.06798 -0.823782,-0.138724 -1.222968,-0.202547 -0.398681,-0.06375 -0.781226,-0.120341 -1.127072,-0.161249 -0.34587,-0.04068 -0.655063,-0.06573 -0.911885,-0.06816 -0.256866,-0.0028 -0.460353,0.01833 -0.601175,0.06717 -0.14089,0.04773 -0.218717,0.122797 -0.231014,0.226049 -0.01175,0.103597 0.04244,0.235555 0.158367,0.394154 0.115862,0.158726 0.293883,0.344154 0.521758,0.551293 0.227879,0.207128 0.506661,0.43612 0.818179,0.67937 0.311544,0.243173 0.656818,0.500983 1.014349,0.763989 0.357496,0.263136 0.727715,0.531736 1.088179,0.796023 0.36043,0.264417 0.711112,0.524448 1.030948,0.771298 0.31986,0.246772 0.608886,0.480279 0.849969,0.693105 0.240621,0.212527 0.4328,0.404205 0.564345,0.569567 0.131519,0.165502 0.202415,0.304655 0.207744,0.41561 0.0053,0.111018 -0.05586,0.193066 -0.180632,0.247811 -0.124266,0.05489 -0.31304,0.08245 -0.555779,0.08552 -0.242682,0.0037 -0.540103,-0.01555 -0.876665,-0.05293 -0.336086,-0.03649 -0.71128,-0.09009 -1.105575,-0.151824 -0.39428,-0.06182 -0.807151,-0.131565 -1.217593,-0.200226 -0.410415,-0.06875 -0.817425,-0.136002 -1.199952,-0.192753 -0.383051,-0.05686 -0.740633,-0.102825 -1.054709,-0.12985 -0.314082,-0.02698 -0.584594,-0.03535 -0.797421,-0.01858 -0.213361,0.01567 -0.368401,0.05806 -0.458425,0.12767 -0.09056,0.06952 -0.115056,0.167628 -0.07496,0.293457 0.04004,0.125965 0.145193,0.279917 0.308499,0.459154 0.163335,0.179139 0.384861,0.383493 0.650405,0.606886 0.265565,0.223297 0.575134,0.465708 0.910159,0.718974 0.334507,0.253193 0.694971,0.51748 1.05883,0.783338 0.364342,0.266111 0.731657,0.533322 1.08133,0.793059 0.349209,0.259458 0.67981,0.510925 0.972774,0.746048 0.292439,0.235022 0.546242,0.453334 0.74676,0.648504 0.199996,0.195068 0.345734,0.366581 0.428339,0.510936 0.08264,0.144255 0.10118,0.260886 0.05416,0.349255 -0.04698,0.08827 -0.160521,0.147836 -0.334193,0.181319 -0.174184,0.03342 -0.408995,0.04051 -0.692746,0.02654 -0.28376,-0.01377 -0.616887,-0.04935 -0.980856,-0.0979 -0.363947,-0.04867 -0.759707,-0.111064 -1.165711,-0.17795 -0.405542,-0.06648 -0.821856,-0.137748 -1.226396,-0.204028 -0.404574,-0.06613 -0.796876,-0.127119 -1.156448,-0.173807 -0.360032,-0.04695 -0.686823,-0.07954 -0.964218,-0.09071 -0.276865,-0.01076 -0.503888,-4.71e-4 -0.66973,0.03637 -0.165941,0.03676 -0.270079,0.10051 -0.308294,0.192671 -0.03821,0.09221 -0.01036,0.212738 0.08053,0.360659 0.09094,0.147869 0.245463,0.323269 0.452826,0.521374 0.206843,0.198043 0.467497,0.419329 0.765349,0.656561 0.297333,0.237139 0.63236,0.490425 0.98399,0.751009 0.351653,0.260476 0.720408,0.528461 1.083778,0.794137 0.363389,0.26555 0.721385,0.528891 1.052985,0.780678 0.331573,0.25193 0.63628,0.4921 0.895462,0.71274 0.259668,0.22087 0.473394,0.42174 0.628883,0.59759 0.155511,0.17575 0.252308,0.3262 0.283582,0.44823 0.03122,0.1222 -0.003,0.21605 -0.101874,0.28186 -0.09886,0.066 -0.262745,0.10374 -0.483333,0.11739 -0.22072,0.0123 -0.498024,0.002 -0.817965,-0.0274 -0.319931,-0.0297 -0.682918,-0.0778 -1.068378,-0.13588 -0.385972,-0.058 -0.794923,-0.12626 -1.205364,-0.19491 -0.410936,-0.0689 -0.822802,-0.13833 -1.214656,-0.19898 -0.391337,-0.0605 -0.762153,-0.11216 -1.093317,-0.14666 -0.330716,-0.0343 -0.621318,-0.0512 -0.857101,-0.0445 -0.235325,0.007 -0.415407,0.0372 -0.531333,0.0963 -0.115964,0.0584 -0.167856,0.14468 -0.153727,0.25945 0.01358,0.11448 0.09382,0.25773 0.233689,0.4267 0.139343,0.16888 0.339351,0.36393 0.586331,0.57918 0.247443,0.21558 0.541874,0.45132 0.866114,0.70007 0.323771,0.24846 0.677363,0.50989 1.038768,0.77469 0.361926,0.26494 0.731663,0.53332 1.087722,0.79569 0.355536,0.26228 0.697415,0.51854 1.004531,0.75988 0.307119,0.24138 0.57954,0.46758 0.800571,0.67178 0.221054,0.20407 0.390736,0.386 0.498314,0.541 0.107554,0.15516 0.152988,0.28344 0.131921,0.38288 -0.02058,0.0998 -0.107695,0.17065 -0.256936,0.21485 -0.149207,0.0442 -0.361075,0.0611 -0.624794,0.0555 -0.263681,-0.006 -0.579233,-0.0333 -0.930439,-0.0763 -0.350759,-0.0428 -0.736717,-0.10111 -1.137375,-0.16553 -0.401151,-0.0647 -0.816935,-0.13576 -1.224926,-0.2034 -0.408456,-0.0679 -0.80911,-0.13239 -1.181365,-0.1847 -0.371806,-0.052 -0.715227,-0.0917 -1.011668,-0.11122 -0.296481,-0.0198 -0.545952,-0.0187 -0.735795,0.008 -0.189744,0.0274 -0.319917,0.0792 -0.384605,0.15964 -0.06459,0.0806 -0.06319,0.18989 0.0023,0.32674 0.06549,0.13697 0.195566,0.30169 0.380892,0.49044 0.185813,0.18895 0.42693,0.40165 0.709098,0.63221 0.2822,0.23051 0.604975,0.47859 0.949294,0.73589 0.3438,0.25722 0.709128,0.52375 1.073994,0.78991 0.364341,0.26609 0.728229,0.53183 1.06959,0.78798 0.341381,0.25608 0.659752,0.50228 0.936543,0.73053 0.276816,0.22816 0.511547,0.4382 0.690051,0.62385 0.178478,0.1858 0.300246,0.34694 0.357909,0.4805 0.05717,0.13338 0.04977,0.23871 -0.02314,0.31588 -0.07293,0.077 -0.211396,0.12583 -0.409028,0.14895 -0.197779,0.0221 -0.454022,0.0213 -0.756333,-8.5e-4 -0.302337,-0.0219 -0.650632,-0.0639 -1.026338,-0.1176 -0.375681,-0.0537 -0.77878,-0.11926 -1.187752,-0.1873 -0.409441,-0.0684 -0.824271,-0.13896 -1.222944,-0.20265 -0.399193,-0.0638 -0.781717,-0.12058 -1.128079,-0.16158 -0.346376,-0.0411 -0.65601,-0.0662 -0.91286,-0.0685 -0.256839,-0.003 -0.461335,0.0178 -0.602615,0.0663 -0.141418,0.0476 -0.219719,0.1225 -0.231992,0.22562 -0.01229,0.10331 0.04153,0.23512 0.156873,0.39363 0.11541,0.15843 0.292905,0.34376 0.520785,0.55091 0.227414,0.20682 0.505675,0.43566 0.817222,0.67879 0.311032,0.24307 0.656337,0.50078 1.013835,0.76389 0.357497,0.26315 0.727251,0.53142 1.087686,0.79585 0.360943,0.2645 0.711602,0.52463 1.031955,0.77158 0.319833,0.24687 0.609345,0.48062 0.85046,0.69332 0.241082,0.21282 0.433286,0.40439 0.565781,0.57033 0.132031,0.16559 0.203397,0.30505 0.20872,0.41601 0.0058,0.11108 -0.05487,0.19349 -0.178645,0.24853 -0.124298,0.055 -0.312633,0.0822 -0.554805,0.0862 -0.242685,0.004 -0.539592,-0.0156 -0.875687,-0.0525 -0.335581,-0.0365 -0.71079,-0.0899 -1.105063,-0.15173 -0.393807,-0.0615 -0.807174,-0.13143 -1.217583,-0.20022 -0.410438,-0.0686 -0.817424,-0.136 -1.200474,-0.19285 -0.382545,-0.0568 -0.740628,-0.1028 -1.055196,-0.13006 -0.314533,-0.0273 -0.58509,-0.0356 -0.798378,-0.0192 -0.213412,0.0156 -0.368909,0.0577 -0.459917,0.12718 -0.09055,0.0695 -0.116008,0.16708 -0.07645,0.29282 0.03958,0.12567 0.1447,0.27972 0.307553,0.45859 0.162822,0.17904 0.38385,0.3832 0.648938,0.60628 0.265537,0.22337 0.574648,0.46548 0.90964,0.71888 0.334534,0.2531 0.694971,0.51746 1.058834,0.78334 0.363876,0.26575 0.731656,0.53332 1.081357,0.79293 0.349183,0.25956 0.680298,0.51112 0.973232,0.74637 0.292927,0.23526 0.547251,0.45366 0.747739,0.64893 0.200509,0.19518 0.346709,0.36701 0.42983,0.51143 0.08261,0.14438 0.102127,0.26144 0.05513,0.34969 -0.04651,0.0887 -0.159049,0.14846 -0.332751,0.18208 -0.173715,0.0333 -0.407955,0.0415 -0.69177,0.027 -0.28323,-0.0137 -0.615908,-0.049 -0.979352,-0.0974 -0.363973,-0.0486 -0.759708,-0.11108 -1.165252,-0.17761 -0.406028,-0.0667 -0.822315,-0.13811 -1.226393,-0.20403 -0.404546,-0.0663 -0.79737,-0.12734 -1.1574,-0.17434 -0.360053,-0.0468 -0.687341,-0.0797 -0.964707,-0.091 -0.277388,-0.0107 -0.504862,-8.7e-4 -0.671233,0.0358 -0.166324,0.0368 -0.271056,0.10011 -0.309764,0.19204 -0.03867,0.0918 -0.01134,0.21226 0.0796,0.36014 0.09043,0.14773 0.243991,0.32258 0.450843,0.52063 0.207325,0.19825 0.46752,0.41919 0.764852,0.65632 0.297361,0.23707 0.631877,0.49023 0.983537,0.7507 0.351628,0.2606 0.719885,0.52836 1.083774,0.79413 0.363367,0.26567 0.721385,0.52885 1.052957,0.78078 0.331601,0.25184 0.636769,0.49234 0.896441,0.71318 0.259692,0.22076 0.473882,0.42195 0.629886,0.59789 0.155974,0.17606 0.253286,0.32662 0.285022,0.44902 0.03177,0.12236 -0.002,0.21631 -0.10041,0.28246 -0.09835,0.0661 -0.261756,0.10424 -0.482423,0.11719 -0.220199,0.0132 -0.497063,0.003 -0.816985,-0.0273 -0.319456,-0.0293 -0.681934,-0.0774 -1.067424,-0.13534 -0.385957,-0.0582 -0.794923,-0.12627 -1.205364,-0.19494 -0.410417,-0.0688 -0.822803,-0.13831 -1.214136,-0.19886 -0.391847,-0.0605 -0.763127,-0.11255 -1.094328,-0.14698 -0.331218,-0.0347 -0.622257,-0.0517 -0.858078,-0.0449 -0.235791,0.007 -0.416335,0.0373 -0.532776,0.0956 -0.116451,0.0585 -0.168866,0.14435 -0.155194,0.2588 0.01359,0.11457 0.09284,0.25733 0.232198,0.42616 0.139371,0.16877 0.338885,0.3636 0.585833,0.579 0.246492,0.21505 0.540898,0.4509 0.864678,0.69932 0.323748,0.24855 0.677363,0.50985 1.038772,0.77471 0.36141,0.26479 0.731168,0.53309 1.087199,0.79558 0.356055,0.26238 0.697907,0.51874 1.005054,0.75997 0.307604,0.24156 0.579999,0.46792 0.802038,0.67237 0.221515,0.2044 0.391219,0.38623 0.499261,0.54158 0.108065,0.15525 0.153992,0.28373 0.133395,0.3835 -0.02007,0.1 -0.106714,0.17109 -0.255439,0.21536 -0.149246,0.0442 -0.360597,0.0612 -0.62368,0.0574 -0.263212,-0.005 -0.578726,-0.0329 -0.928997,-0.0755 -0.350735,-0.0429 -0.736719,-0.10113 -1.137346,-0.16569 -0.400667,-0.0645 -0.816476,-0.13543 -1.224929,-0.20341 -0.407986,-0.0675 -0.809108,-0.13238 -1.181392,-0.18455 -0.372279,-0.0521 -0.715681,-0.0921 -1.012644,-0.11171 -0.296457,-0.0198 -0.54643,-0.0188 -0.736738,0.007 -0.19023,0.0275 -0.321061,0.0784 -0.386071,0.15904 -0.06514,0.0804 -0.06416,0.18946 8.25e-4,0.32622 0.06502,0.13667 0.194586,0.30128 0.379916,0.49003 0.184855,0.18839 0.425951,0.40122 0.707661,0.63145 0.282169,0.2306 0.604483,0.47838 0.948773,0.73582 0.343802,0.2572 0.709158,0.52358 1.073506,0.78969 0.364857,0.26619 0.728719,0.53204 1.070104,0.78807 0.341358,0.25615 0.660216,0.5026 0.937524,0.73094 0.276792,0.22827 0.512041,0.4384 0.691007,0.6244 0.178985,0.18588 0.301218,0.34735 0.35888,0.48091 0.05768,0.1335 0.05078,0.23916 -0.02164,0.3164 -0.07244,0.0775 -0.210408,0.12632 -0.40757,0.14986 -0.197108,0.0241 -0.453529,0.0212 -0.755358,-5.4e-4 -0.301833,-0.0219 -0.650138,-0.0637 -1.025332,-0.11726 -0.375725,-0.0538 -0.778815,-0.11917 -1.187756,-0.18734 -0.408974,-0.0681 -0.823781,-0.13873 -1.222969,-0.20253 -0.399161,-0.0638 -0.78172,-0.12056 -1.12857,-0.16177 -0.346341,-0.0411 -0.656498,-0.0664 -0.913812,-0.0691 -0.257326,-0.003 -0.461798,0.0178 -0.603686,0.0655 -0.141934,0.0471 -0.220673,0.12189 -0.233457,0.22499 -0.01274,0.1031 0.04051,0.23469 0.155428,0.39286 0.115361,0.15853 0.291896,0.34346 0.519312,0.55026 0.227388,0.20691 0.50519,0.43546 0.816223,0.6785"
       title="sin(x)"
       id="path6228-4"
       sodipodi:nodetypes="cccccccccscccccsccccccscccccccccccccccccccccccccccsccccccccccccccccccccccccccccsccccccccccccccccccccscccccscccsccccccccccccccccccccscccccccccccsccccccccssccccccccccscccscccccccccccsccscccccccccccsssccccc" />
    <g
       id="g9127"
       transform="translate(13.898016,-4.5435825)"
       style="stroke-width:1;stroke-dasharray:none" />
  </g>
  <g
     inkscape:label="Layer 1"
     inkscape:groupmode="layer"
     id="layer1"
     style="display:inline">
    <path
       style="fill:#ffffff;stroke:#ffffff;stroke-width:2.484;stroke-linecap:butt;stroke-linejoin:miter;stroke-miterlimit:4;stroke-dasharray:none;stroke-opacity:1;fill-opacity:1"
       d="M 36.289262,83.139787 H 133.63292"
       id="path833" />
  </g>
  <g
     inkscape:groupmode="layer"
     id="layer3"
     inkscape:label="Layer 3"
     style="display:inline" />
  <g
     inkscape:groupmode="layer"
     id="layer2"
     inkscape:label="Layer 2"
     style="display:inline">
    <g
       id="g5225"
       transform="translate(-47.449065,50.9201)"
       style="filter:url(#filter6419)">
      <g
         id="g5230"
         transform="translate(6.6817382,0.26726953)">
        <g
           id="g5235">
          <path
             style="fill:#000000;fill-opacity:1;stroke:#000000;stroke-width:0.264583px;stroke-linecap:butt;stroke-linejoin:miter;stroke-opacity:0.00806454"
             d="m 112.25893,114.19605 -0.8032,-0.85044 0.0945,-5.43341 -0.11644,-1.71473 0.21094,-11.561683 1.22842,-0.519716 -0.47247,-0.425225 -0.0473,-1.22842 0.28348,-0.236236 0.0473,-0.425223 -0.18899,0.04725 V 91.55292 l 0.2953,-0.118118 0.15355,-0.153553 c 0,0 3.54769,-0.743696 7.824,-0.743696 h 1.84188 v 23.753577 z m 20.70194,0 0.8032,-0.85044 -0.0945,-5.43341 0.11644,-1.71473 -0.21094,-11.561683 -1.22842,-0.519716 0.47247,-0.425225 0.0473,-1.22842 -0.28348,-0.236236 -0.0473,-0.425223 0.18899,0.04725 V 91.55292 l -0.2953,-0.118118 -0.15355,-0.153553 c 0,0 -3.54769,-0.743696 -7.824,-0.743696 h -1.84188 v 23.753577 z"
             id="path5148"
             sodipodi:nodetypes="ccccccccccccccsccc"
             inkscape:path-effect="#path-effect5150"
             inkscape:original-d="m 112.25893,114.19605 -0.8032,-0.85044 0.0945,-5.43341 -0.11644,-1.71473 0.21094,-11.561683 1.22842,-0.519716 -0.47247,-0.425225 -0.0473,-1.22842 0.28348,-0.236236 0.0473,-0.425223 -0.18899,0.04725 V 91.55292 l 0.2953,-0.118118 0.15355,-0.153553 c 0,0 3.54769,-0.743696 7.824,-0.743696 h 1.84188 v 23.753577 z"
             class="UnoptimicedTransforms" />
          <path
             id="rect5152"
             style="font-variation-settings:normal;opacity:0.227564;vector-effect:none;fill:url(#pattern5194);fill-opacity:1;stroke:#767676;stroke-width:0.0499999;stroke-linecap:butt;stroke-linejoin:miter;stroke-miterlimit:4;stroke-dasharray:none;stroke-dashoffset:0;stroke-opacity:1;stop-color:#000000;stop-opacity:1"
             d="m 111.58502,97.75383 c 7.56032,-1.152026 14.90146,-1.164297 22.01633,0 v 8.55262 c -6.89671,-0.7859 -14.31968,-0.63622 -22.01633,0 z"
             sodipodi:nodetypes="ccccc" />
          <path
             style="fill:#000000;fill-opacity:1;stroke:#ffffff;stroke-width:0.765;stroke-linecap:butt;stroke-linejoin:miter;stroke-miterlimit:4;stroke-dasharray:none;stroke-opacity:1"
             d="m 146.53052,115.7277 c 0,0 -0.86863,-3.74177 -5.01131,-4.07586 -4.14267,-0.33408 -4.14267,6.88219 -4.14267,6.88219 l -3.47451,-1.26953 -0.4009,-3.34087 -2.60588,-0.46772 c 0,0 -0.53454,-0.20045 -1.20271,-2.33861 -0.66818,-2.13815 -0.13364,-2.20497 -1.73726,-2.40542 -1.60361,-0.20045 -8.0849,-0.73499 -10.28987,0 -2.20498,0.73499 -0.68245,1.97282 -2.60588,4.67722 -0.11291,0.15875 -3.60814,0.53453 -3.60814,0.53453 l -0.20045,1.26954 -2.6727,0.60135 -0.26727,4.27631 c 0,0 -2.40542,0.93545 -2.67269,3.40769 -0.26727,2.47224 -0.26727,4.94449 -0.26727,6.21402 0,1.26953 1.93769,2.66634 1.9377,4.07586 10e-6,0.50113 8.55263,0.26727 8.55263,0.26727 -0.009,0.77075 0.41516,1.2526 0.93544,1.67043 0,0 2.60588,-0.46772 6.61492,-0.46772 4.00905,0 5.61266,0.4009 5.61266,0.4009 0.8151,-0.39559 0.62125,-1.13462 0.90203,-1.77066 l 9.32103,-0.0334 c 0,0 0.60136,1.13589 3.94223,0.4009 3.34087,-0.73499 3.87541,-3.00678 3.94222,-7.08264 0.0668,-4.07586 0.46772,-9.35444 -0.60135,-11.42578 z"
             id="path5126"
             sodipodi:nodetypes="csccccssssccccsssccscccsssc" />
        </g>
      </g>
    </g>
  </g>
</svg>
